# xmcd CD database file
#
# Track frame offsets:
#	180
#	25578
#	59689
#	83311
#	109185
#	130253
#	154113
#	160322
#	176585
#	190725
#	199014
#	221293
#	225183
#
# Disc length: 3374 seconds
#
# Revision: 0
# Processed by: cddbd v1.4PL0 Copyright (c) Steve Scherf et al.
# Submitted via: CDex 1.50beta10
#
DISCID=9b0d2c0d
DTITLE=ARFI - Tragédie au cirque
DYEAR=1996
DGENRE=Jazz
TTITLE0=Prélude à l'inconnu 1
TTITLE1=Prélude à l'inconnu 2
TTITLE2=Circus !
TTITLE3=Tragique
TTITLE4=Trahison - Feu Gitan - Trio des empreintes
TTITLE5=Chanson de Nanon
TTITLE6=Voleur du drame
TTITLE7=Phénix - Ode à Lon Chaney
TTITLE8=Grand écart
TTITLE9=Duo clinique
TTITLE10=Tématicalon - Trahison
TTITLE11=Crise cardiaque
TTITLE12=Cha cha lon - Le galop du destin - Ode à Lon Chaney
EXTD=YEAR: 1996
EXTT0=
EXTT1=
EXTT2=
EXTT3=
EXTT4=
EXTT5=
EXTT6=
EXTT7=
EXTT8=
EXTT9=
EXTT10=
EXTT11=
EXTT12=
PLAYORDER=
